HIERARCHY
ROOT hips
{
  OFFSET 4.514983404067499e-9 10.105397940993303 1.318478203070619
  CHANNELS 6 Xposition Yposition Zposition Yrotation Xrotation Zrotation
  JOINT spine
  {
    OFFSET -3.891297943093837e-9 0.5743022203102706 0
    CHANNELS 3 Yrotation Xrotation Zrotation
    JOINT chest
    {
      OFFSET 0 1.2550312016247926 0
      CHANNELS 3 Yrotation Xrotation Zrotation
      JOINT upperChest
      {
        OFFSET 0 1.2059856050120283 0
        CHANNELS 3 Yrotation Xrotation Zrotation
        JOINT neck
        {
          OFFSET 0 1.5290392449770056 0
          CHANNELS 3 Yrotation Xrotation Zrotation
          JOINT head
          {
            OFFSET 0 0.8186276690878121 0
            CHANNELS 3 Yrotation Xrotation Zrotation
            JOINT leftEye
            {
              OFFSET 0.4540883942785781 -0.2684596961258452 0.6133497327236779
              CHANNELS 3 Yrotation Xrotation Zrotation
              End Site
              {
                OFFSET 0.4540883942785781 -0.2684596961258452 0.6133497327236779
              }
            }
            JOINT rightEye
            {
              OFFSET -0.4540889229417456 -0.26846010916843954 0.6133525398671689
              CHANNELS 3 Yrotation Xrotation Zrotation
              End Site
              {
                OFFSET -0.4540889229417456 -0.26846010916843954 0.6133525398671689
              }
            }
          }
        }
        JOINT leftShoulder
        {
          OFFSET 1.1700010731725468 -0.4176065950681176 0
          CHANNELS 3 Yrotation Xrotation Zrotation
          JOINT leftUpperArm
          {
            OFFSET 1.1803911524554955 0 0
            CHANNELS 3 Yrotation Xrotation Zrotation
            JOINT leftLowerArm
            {
              OFFSET 2.4406171707858904 0 0
              CHANNELS 3 Yrotation Xrotation Zrotation
              JOINT leftHand
              {
                OFFSET 2.3832177068873874 0 0
                CHANNELS 3 Yrotation Xrotation Zrotation
                JOINT leftIndexProximal
                {
                  OFFSET 0.7310175006235151 0.08192774217833776 0.20404791572985242
                  CHANNELS 3 Yrotation Xrotation Zrotation
                  JOINT leftIndexIntermediate
                  {
                    OFFSET 0.3688845439429529 -0.010662034455094949 -0.014226011560394963
                    CHANNELS 3 Yrotation Xrotation Zrotation
                    JOINT leftIndexDistal
                    {
                      OFFSET 0.2271119941018298 -0.007897656478952575 -0.007580683836364496
                      CHANNELS 3 Yrotation Xrotation Zrotation
                      End Site
                      {
                        OFFSET 0.2271119941018298 -0.007897656478952575 -0.007580683836364496
                      }
                    }
                  }
                }
                JOINT leftLittleProximal
                {
                  OFFSET 0.678269929308182 0.08192620621401336 -0.323876516389586
                  CHANNELS 3 Yrotation Xrotation Zrotation
                  JOINT leftLittleIntermediate
                  {
                    OFFSET 0.34904545821382604 -0.0000017106393073174075 8.629360392919949e-9
                    CHANNELS 3 Yrotation Xrotation Zrotation
                    JOINT leftLittleDistal
                    {
                      OFFSET 0.2011060672849896 0.0031247840072243793 0.0038660318003989197
                      CHANNELS 3 Yrotation Xrotation Zrotation
                      End Site
                      {
                        OFFSET 0.2011060672849896 0.0031247840072243793 0.0038660318003989197
                      }
                    }
                  }
                }
                JOINT leftMiddleProximal
                {
                  OFFSET 0.7368181082522638 0.0819260272939426 0.02272335773438093
                  CHANNELS 3 Yrotation Xrotation Zrotation
                  JOINT leftMiddleIntermediate
                  {
                    OFFSET 0.41136739116025356 -0.0000015892429323649537 5.27860346960507e-8
                    CHANNELS 3 Yrotation Xrotation Zrotation
                    JOINT leftMiddleDistal
                    {
                      OFFSET 0.25378150303820757 -0.0000015332469289752737 1.3442958385345705e-8
                      CHANNELS 3 Yrotation Xrotation Zrotation
                      End Site
                      {
                        OFFSET 0.25378150303820757 -0.0000015332469289752737 1.3442958385345705e-8
                      }
                    }
                  }
                }
                JOINT leftRingProximal
                {
                  OFFSET 0.7284256823094712 0.08192611199801392 -0.1508405069143483
                  CHANNELS 3 Yrotation Xrotation Zrotation
                  JOINT leftRingIntermediate
                  {
                    OFFSET 0.381593741461262 -0.0000016975471202052006 6.592486757883709e-8
                    CHANNELS 3 Yrotation Xrotation Zrotation
                    JOINT leftRingDistal
                    {
                      OFFSET 0.22014536669820362 -0.0027420652959939673 -0.005037497035641991
                      CHANNELS 3 Yrotation Xrotation Zrotation
                      End Site
                      {
                        OFFSET 0.22014536669820362 -0.0027420652959939673 -0.005037497035641991
                      }
                    }
                  }
                }
                JOINT leftThumbProximal
                {
                  OFFSET 0.10842212958334652 -0.16573713992498873 -0.07779936144556289
                  CHANNELS 3 Yrotation Xrotation Zrotation
                  JOINT leftThumbIntermediate
                  {
                    OFFSET 0.40720553822379024 -0.01751267955631075 0.31852684427382305
                    CHANNELS 3 Yrotation Xrotation Zrotation
                    JOINT leftThumbDistal
                    {
                      OFFSET 0.23412859218032667 -0.01859690713588802 0.2146635043319005
                      CHANNELS 3 Yrotation Xrotation Zrotation
                      End Site
                      {
                        OFFSET 0.23412859218032667 -0.01859690713588802 0.2146635043319005
                      }
                    }
                  }
                }
              }
            }
          }
        }
        JOINT rightShoulder
        {
          OFFSET -1.1700037144859516 -0.41760703856471126 0
          CHANNELS 3 Yrotation Xrotation Zrotation
          JOINT rightUpperArm
          {
            OFFSET -1.1803910289368023 0 0
            CHANNELS 3 Yrotation Xrotation Zrotation
            JOINT rightLowerArm
            {
              OFFSET -2.440617418222133 0 0
              CHANNELS 3 Yrotation Xrotation Zrotation
              JOINT rightHand
              {
                OFFSET -2.3832181162662343 0 0
                CHANNELS 3 Yrotation Xrotation Zrotation
                JOINT rightIndexProximal
                {
                  OFFSET -0.7310168852843362 0.08192787643494381 0.20404785424302163
                  CHANNELS 3 Yrotation Xrotation Zrotation
                  JOINT rightIndexIntermediate
                  {
                    OFFSET -0.3688846010723953 -0.01066191355993129 -0.014226020535245201
                    CHANNELS 3 Yrotation Xrotation Zrotation
                    JOINT rightIndexDistal
                    {
                      OFFSET -0.22711216276130997 -0.007898902439410271 -0.007580718044857868
                      CHANNELS 3 Yrotation Xrotation Zrotation
                      End Site
                      {
                        OFFSET -0.22711216276130997 -0.007898902439410271 -0.007580718044857868
                      }
                    }
                  }
                }
                JOINT rightLittleProximal
                {
                  OFFSET -0.6782685897119165 0.08192501740206293 -0.3238766118101876
                  CHANNELS 3 Yrotation Xrotation Zrotation
                  JOINT rightLittleIntermediate
                  {
                    OFFSET -0.34904682243945895 -2.664019085329983e-7 3.792712677253007e-8
                    CHANNELS 3 Yrotation Xrotation Zrotation
                    JOINT rightLittleDistal
                    {
                      OFFSET -0.20110609302945537 0.0031260842677420797 0.0038661724369087186
                      CHANNELS 3 Yrotation Xrotation Zrotation
                      End Site
                      {
                        OFFSET -0.20110609302945537 0.0031260842677420797 0.0038661724369087186
                      }
                    }
                  }
                }
                JOINT rightMiddleProximal
                {
                  OFFSET -0.7368168209984411 0.08192485183145659 0.022723294831187846
                  CHANNELS 3 Yrotation Xrotation Zrotation
                  JOINT rightMiddleIntermediate
                  {
                    OFFSET -0.4113687575187084 -9.03141548214137e-8 4.759541079313312e-8
                    CHANNELS 3 Yrotation Xrotation Zrotation
                    JOINT rightMiddleDistal
                    {
                      OFFSET -0.2537822083525749 -9.554208624251714e-8 -1.6364827826187422e-9
                      CHANNELS 3 Yrotation Xrotation Zrotation
                      End Site
                      {
                        OFFSET -0.2537822083525749 -9.554208624251714e-8 -1.6364827826187422e-9
                      }
                    }
                  }
                }
                JOINT rightRingProximal
                {
                  OFFSET -0.7284243957721679 0.08192492753028224 -0.15084062217729294
                  CHANNELS 3 Yrotation Xrotation Zrotation
                  JOINT rightRingIntermediate
                  {
                    OFFSET -0.381595106800805 -2.5662436442530634e-7 2.929475539925619e-8
                    CHANNELS 3 Yrotation Xrotation Zrotation
                    JOINT rightRingDistal
                    {
                      OFFSET -0.22014544912608125 -0.002738002524970362 -0.0050375115645966
                      CHANNELS 3 Yrotation Xrotation Zrotation
                      End Site
                      {
                        OFFSET -0.22014544912608125 -0.002738002524970362 -0.0050375115645966
                      }
                    }
                  }
                }
                JOINT rightThumbProximal
                {
                  OFFSET -0.10842026863657162 -0.16573778435706465 -0.07779917642461898
                  CHANNELS 3 Yrotation Xrotation Zrotation
                  JOINT rightThumbIntermediate
                  {
                    OFFSET -0.40720600760521597 -0.017512298079938038 0.3185267362029824
                    CHANNELS 3 Yrotation Xrotation Zrotation
                    JOINT rightThumbDistal
                    {
                      OFFSET -0.2341289751103648 -0.018594162598156494 0.21466399510514025
                      CHANNELS 3 Yrotation Xrotation Zrotation
                      End Site
                      {
                        OFFSET -0.2341289751103648 -0.018594162598156494 0.21466399510514025
                      }
                    }
                  }
                }
              }
            }
          }
        }
      }
    }
  }
  JOINT leftUpperLeg
  {
    OFFSET -0.8565189721517369 0.4427277044191169 0
    CHANNELS 3 Yrotation Xrotation Zrotation
    JOINT leftLowerLeg
    {
      OFFSET 0 -3.918486704769693 0
      CHANNELS 3 Yrotation Xrotation Zrotation
      JOINT leftFoot
      {
        OFFSET 6.174701361744139e-7 -0.055233446196002234 4.612027801972084
        CHANNELS 3 Yrotation Xrotation Zrotation
        JOINT leftToes
        {
          OFFSET -3.4372540951010944e-7 -0.705284859504459 1.2256624571888697
          CHANNELS 3 Yrotation Xrotation Zrotation
          End Site
          {
            OFFSET -3.4372540951010944e-7 -0.705284859504459 1.2256624571888697
          }
        }
      }
    }
  }
  JOINT rightUpperLeg
  {
    OFFSET 0.8565189732197466 0.44272769569168136 0
    CHANNELS 3 Yrotation Xrotation Zrotation
    JOINT rightLowerLeg
    {
      OFFSET 0 -3.918486692649319 0
      CHANNELS 3 Yrotation Xrotation Zrotation
      JOINT rightFoot
      {
        OFFSET 6.995136552362391e-7 -0.05523244834012664 4.612028499942008
        CHANNELS 3 Yrotation Xrotation Zrotation
        JOINT rightToes
        {
          OFFSET -4.2566694985479714e-7 -0.7052846587611067 1.22566236096697
          CHANNELS 3 Yrotation Xrotation Zrotation
          End Site
          {
            OFFSET -4.2566694985479714e-7 -0.7052846587611067 1.22566236096697
          }
        }
      }
    }
  }
}
MOTION
Frames: 4
Frame Time: 0.03333333333333333
-0.016917290166020393 -0.015903235793107484 0.011733508668839931 -6.490869211348641 6.3372527932064635 -0.6548221008063847 0.6217387336886965 -0.11678803140684864 0.5795740834493944 2.4406343458277746 -0.4956664472725963 1.9939697898008724 0 0 0 -0.0003616297083118714 -5.453597244539004 -0.0032281141189565393 2.434135027297479 2.7907581664547236 -1.954319564159993 0 0 0 0 0 0 -0.007833100230484353 -1.044360029210757 -5.753402366755087 -32.622557540459205 4.895268032593827 -66.72680344490891 -19.184456574734053 -1.6846651375376256 0.46585201981815333 14.074694544600067 -18.20492552783794 2.9413286411738135 -0.969199947558988 -0.3832303910539091 -18.220300124744817 0.3529517786567267 0.36383723083071795 -26.47952650423833 -1.281281483810888e-10 1.793762613445802e-24 1.6042536111691759e-12 3.84914109912575 -3.2926943750292144 -26.243634984633516 -7.637660595752347 -1.857192808310573 -38.219200235970156 4.171116073730225e-11 5.950788745874541e-26 -1.634838641478621e-13 -0.5173084119470476 -0.8511733568843454 -22.689076340808974 -1.4869979317054667 -0.3727369110572987 -20.94512603949906 1.139979627027678e-10 6.3611093629270335e-15 -1.43444452663829e-12 2.1518560226901835 -2.860694056177694 -30.898977049340754 -3.1638080769887846 -0.6539873113320114 -27.708149704198227 0.0000021541433768790767 0.000010020030867590694 0.000002508464699947598 6.969772595219919 -2.201791036273668 8.795133490932793 6.110586973117909 3.458679407050205 1.6877693535213114 -5.930696856770178e-7 -0.0000015233442213487932 0.0000013888317956493386 0.8427277825806639 -1.317458519351755 7.686174176335347 32.113261762787296 8.953791057815003 61.97747086646799 19.78743889663303 -1.7817171257049966 -0.49983298874756343 -6.957224997604412 -0.4545032164620709 -2.509981940126763 -1.580766959159002 -0.7563414060757233 16.436722841460632 -0.8487793660987005 0.5168633795672489 24.65258541893777 3.933694872703174e-10 3.1805546814635168e-15 -4.874754472204794e-12 -4.66996981073563 -0.33405601286638725 35.42523880306265 10.563931078287514 -3.9058496291012874 46.17465336746245 1.6628260911929426e-9 -3.1805543023118527e-15 -2.179830267765673e-11 -1.1851318379422775 -1.1803892774021019 26.70677754523739 1.389005630754475 -0.3493548681894906 24.80428307513444 -0.0000014743405757050483 -9.132685423454265e-7 -0.0000031878619167886448 -1.817890867934316 -1.329659532013963 34.82052288679827 4.060106932497047 -1.11092933272857 31.421027496975828 0.0000071191345732703154 -0.0000057210474143868385 0.000003743473980982128 -4.549133928231911 -3.921421634224794 -9.6496630421048 -6.253197542614856 3.186213599121162 -2.272259532118888 0.0000036014121906907523 -0.0000019841124502742856 7.092165708682037e-7 11.097037877010427 -11.723658827918484 -0.3424902176721313 0.002508366249718283 5.2505408443334 -0.16592183756401488 6.103364344997589 0.14830802510590863 -0.19467106253137836 -0.02539713264808271 0.0029881631568972316 0.0629428667705361 0.5668658974902865 -8.973700025753196 1.245415819838033 0.004534559141943993 1.773645293374542 0.05509093166934104 2.8178807289810224 0.8919459265745967 -0.6293647581379963 -0.10631790591448059 -0.01220342787894126 0.263513104438068
-0.018147509545087814 -0.01569819581508014 0.01572641171514988 -6.487799272276761 6.317446254974274 -0.6501017167084898 0.6204649342121534 -0.11818072591469962 0.5780027053181269 2.436265697205914 -0.5011860893044701 1.9913115287022074 0 0 0 -0.05399208684115259 -5.235048769149128 0.025336808420164548 2.1308639279390222 2.6505855218239276 -1.8348123793333033 0 0 0 0 0 0 -0.01678757324873022 -1.041862967813175 -5.78695108189011 -32.59521978239206 4.959868520438416 -66.70256588360802 -19.20825874712081 -1.6876864566330883 0.46693894059386093 14.072690018218239 -18.234231195885883 2.9625621850899826 -0.9670999055717378 -0.38127718028683777 -18.205075159016932 0.3526813188378993 0.36442250448461044 -26.508122303263324 -1.281281483810888e-10 1.793762613445802e-24 1.6042536111691759e-12 3.850431647224868 -3.2919362534335668 -26.24689835499919 -7.63759274099507 -1.8571039691871234 -38.21839977181841 4.171116073730225e-11 5.950788745874541e-26 -1.634838641478621e-13 -0.5016619066564718 -0.839279742895454 -22.687606167821883 -1.4876700826260232 -0.3729326961716621 -20.9525461290849 1.139979627027678e-10 6.3611093629270335e-15 -1.43444452663829e-12 2.1474056104901913 -2.8645173296289403 -30.90223965718723 -3.1642032643519906 -0.6542087733027889 -27.712723602113577 0.0000021541433768790767 0.000010020030867590694 0.000002508464699947598 6.968485085970699 -2.202778300930505 8.794067996168053 6.117380247937565 3.4644069384301703 1.686262260135703 -5.930696856770178e-7 -0.0000015233442213487932 0.0000013888317956493386 0.8352876662938953 -1.3181373422181946 7.672297434039455 32.06799871265822 8.901512079045633 61.954265700437894 19.677307062786294 -1.767442334437522 -0.4947240503450875 -6.843843581816979 -0.39742556113235594 -2.4495236506993487 -1.5881407723520786 -0.7513436762739195 16.389692021600638 -0.8488048680603288 0.5169417164871994 24.65525815209052 3.933694872703174e-10 3.1805546814635168e-15 -4.874754472204794e-12 -4.3640448978677275 -0.5417402036713449 35.80095407648632 10.565750609218425 -3.908948774365043 46.19029237769074 1.6628260911929426e-9 -3.1805543023118527e-15 -2.179830267765673e-11 -1.1620736481939882 -1.199557001154897 26.684365360543687 1.3798271786666503 -0.3466897112261394 24.67841413644791 -0.0000014743405757050483 -9.132685423454265e-7 -0.0000031878619167886448 -1.799473711608762 -1.3422173667856696 34.80114887155773 4.05201146782346 -1.1050743389613025 31.342282807230376 0.0000071191345732703154 -0.0000057210474143868385 0.000003743473980982128 -4.5491373405568725 -3.9214173553387583 -9.649688082295423 -6.253199720082398 3.186196497211682 -2.272238385146407 0.0000036014121906907523 -0.0000019841124502742856 7.092165708682037e-7 11.087624585648312 -11.667268581942782 -0.33099285983707794 0.0028403398041362002 5.2352913992034456 -0.16516384309120738 6.111327015554914 0.12881009911436955 -0.2087588141970889 -0.025433656481527116 0.003003370999991876 0.06307012565653487 0.5907584839217431 -8.923542471578314 1.2428165944289071 0.004784831610061704 1.7706934532304275 0.055199317297731684 2.7930319640040553 0.8686888418417549 -0.635765739070424 -0.1063213543536852 -0.012212146542243509 0.26351046310369647
-0.020531844347715378 -0.015318633437150453 0.023271994665265083 -6.464238127328307 6.290092015069051 -0.6335596942163182 0.6150179309815611 -0.12139221584424711 0.5722917687729583 2.4163593111915924 -0.5137336923328192 1.9802628966345963 0 0 0 -0.15643180885707444 -4.799742102867892 0.08832754046948577 1.5561920637465791 2.3896290747639717 -1.6018631209581722 0 0 0 0 0 0 -0.035913128064238915 -1.036571795816903 -5.857124435817394 -32.55825878397764 5.090078128301832 -66.62260603190329 -19.230785245993655 -1.6913734801793643 0.46815011825031877 14.049485360557227 -18.238643113301485 2.9073593808333 -0.9644040431090721 -0.37873901549389133 -18.176860722424127 0.35273065100884693 0.36436903582865665 -26.50512419763605 -1.281281483810888e-10 1.793762613445802e-24 1.6042536111691759e-12 3.861197258064665 -3.286090227424344 -26.25383486822168 -7.637397704820394 -1.856840228065693 -38.216556641269605 4.171116073730225e-11 5.950788745874541e-26 -1.634838641478621e-13 -0.48468054741830685 -0.8265747821517833 -22.702631050604282 -1.4883585388123595 -0.3731239455217042 -20.960073365063785 1.139979627027678e-10 6.3611093629270335e-15 -1.43444452663829e-12 2.141675633048334 -2.869418789143024 -30.9028088072846 -3.1640993052145063 -0.6541700307982802 -27.711561058340497 0.0000021541433768790767 0.000010020030867590694 0.000002508464699947598 6.960796481000578 -2.2088230150198385 8.785112615602703 6.122148674675557 3.468426602018556 1.6852302480893524 -5.930696856770178e-7 -0.0000015233442213487932 0.0000013888317956493386 0.8088902609310976 -1.3198671190776263 7.627392313990401 31.9661897113896 8.7341036408295 61.919986502689426 19.38866740297276 -1.7304315073648595 -0.48154730466149004 -6.5808445329913985 -0.25707848408997236 -2.3162114479405367 -1.597727285054721 -0.7447834141285393 16.331031028483746 -0.8488245034987648 0.5170183457913012 24.656991075696116 3.933694872703174e-10 3.1805546814635168e-15 -4.874754472204794e-12 -3.693174145684027 -0.9766872985292949 36.61497759214667 10.559717863292157 -3.898705764177115 46.13883049293125 1.6628260911929426e-9 -3.1805543023118527e-15 -2.179830267765673e-11 -1.1431646802929838 -1.2151709718309094 26.675687614487167 1.3599926043564887 -0.3409151625697745 24.407233733941588 -0.0000014743405757050483 -9.132685423454265e-7 -0.0000031878619167886448 -1.7692114853079923 -1.3626502337241218 34.79073157175444 4.0391377689625 -1.0957892254529016 31.217174656478523 0.0000071191345732703154 -0.0000057210474143868385 0.000003743473980982128 -4.5491580860077505 -3.9214254852222434 -9.649671208918077 -6.253186969964301 3.1862061170357294 -2.2722296273091374 0.0000036014121906907523 -0.0000019841124502742856 7.092165708682037e-7 11.037710196873268 -11.558252163017725 -0.31520008607361194 0.003442098000098965 5.179085609639773 -0.1626498721897581 6.150774653575347 0.10824323482782187 -0.23476626007917814 -0.025545377423420692 0.0030067060533021336 0.0633213150455469 0.5817456079667181 -8.867914222155639 1.2362624549457482 0.005281161808877879 1.8277020938226831 0.05832917790551942 2.781358720996849 0.7861940654516103 -0.651828561537298 -0.10612341927817091 -0.012189172193263195 0.26301963945663837
-0.02309482730925083 -0.015077353835099672 0.030180079862475395 -6.412435701793528 6.278496822172591 -0.6126084560406744 0.6052848321624287 -0.12583043507206293 0.5632920162267367 2.379517497800587 -0.5308806342725848 1.9586769235648986 0 0 0 -0.25026681425243086 -4.356972018352793 0.1701343404892136 1.0490867758788516 2.175557418751473 -1.3849837355464698 0 0 0 0 0 0 -0.04493190762715012 -1.0335829936296168 -5.89497415592775 -32.518095875220965 5.200081873661042 -66.54108830552228 -19.232708469035714 -1.6923433629600377 0.4683621372963583 14.002199764603706 -18.13898331974367 2.7446906626623924 -0.9626602634940293 -0.3770105398365576 -18.13998041711815 0.35326757418026367 0.3632008631714364 -26.447338453959915 -1.281281483810888e-10 1.793762613445802e-24 1.6042536111691759e-12 3.869531518209336 -3.2818098480804396 -26.245298337212528 -7.6371869749946955 -1.8565303589927433 -38.214231622260556 4.171116073730225e-11 5.950788745874541e-26 -1.634838641478621e-13 -0.48159233484271496 -0.8242777325947395 -22.7069933226116 -1.487815373645922 -0.37298371022779586 -20.954194204723034 1.139979627027678e-10 6.3611093629270335e-15 -1.43444452663829e-12 2.1368693969299697 -2.8737406821283433 -30.88224159210526 -3.163311488124565 -0.6536609884699841 -27.702318462647092 0.0000021541433768790767 0.000010020030867590694 0.000002508464699947598 6.953408351896043 -2.2147938470736706 8.78957641620945 6.114422926597719 3.4619095722532944 1.6869265888091673 -5.930696856770178e-7 -0.0000015233442213487932 0.0000013888317956493386 0.7759663912034467 -1.3218884316879618 7.572550540791287 31.85331941400252 8.501832981750013 61.89180396171665 19.01893595227919 -1.6824614502633335 -0.46475445989488473 -6.262877413056321 -0.10206993403716785 -2.1361509589246355 -1.5936469709468133 -0.7527101519759779 16.20918124396813 -0.8489170754278852 0.5173505306334972 24.66776777269472 3.933694872703174e-10 3.1805546814635168e-15 -4.874754472204794e-12 -2.974840588802805 -1.4230520783325353 37.481383383182 10.553895715167986 -3.888871496455369 46.0892789581383 1.6628260911929426e-9 -3.1805543023118527e-15 -2.179830267765673e-11 -1.0990434138931158 -1.2510462047436803 26.701550601275184 1.3352383328594537 -0.33385179741352716 24.069278679209084 -0.0000014743405757050483 -9.132685423454265e-7 -0.0000031878619167886448 -1.7321827319022234 -1.387536898541841 34.781164438716836 4.027076526478575 -1.0871041313679504 31.100228582011237 0.0000071191345732703154 -0.0000057210474143868385 0.000003743473980982128 -4.549121985094292 -3.921430619885539 -9.649655449084536 -6.253222990404555 3.186228349518317 -2.27225825048421 0.0000036014121906907523 -0.0000019841124502742856 7.092165708682037e-7 10.957982875342232 -11.470759616340382 -0.30324702711052487 0.003939535207875405 5.118418403939646 -0.1597812301628802 6.206308533815167 0.09879433969926547 -0.26040581750505964 -0.025705164816961334 0.003028480824805886 0.06373151300216351 0.4941502850810471 -8.853000109994316 1.2363743191324637 0.005821027891845465 1.9334135327665347 0.06355204107235646 2.8220948833014643 0.6767715307872052 -0.6729797171681655 -0.10576355429462879 -0.012147624932007493 0.26213453661668323
